<svg xmlns="http://www.w3.org/2000/svg" xmlns:xlink="http://www.w3.org/1999/xlink" width="500" zoomAndPan="magnify" viewBox="0 0 375 374.999991" height="500" preserveAspectRatio="xMidYMid meet" version="1.0"><defs><g/></defs><g fill="#000000" fill-opacity="1"><g transform="translate(139.464063, 267.133319)"><g><path d="M 174.671875 25.71875 C 175.304688 25.71875 175.941406 25.71875 176.578125 25.71875 L 176.578125 27.3125 C 173.617188 27.738281 170.3125 27.953125 166.65625 27.953125 C 163 27.953125 158.5 27.15625 153.15625 25.5625 C 147.8125 23.976562 142.96875 21.015625 138.625 16.671875 C 129.738281 7.773438 124.34375 -3.757812 122.4375 -17.9375 L 112.75 -88.609375 L 79.71875 -13.96875 C 76.75 -7.507812 74.945312 -2.113281 74.3125 2.21875 L 72.734375 2.21875 L 31.59375 -87.171875 L 24.609375 -8.25 C 24.398438 -6.457031 24.957031 -4.867188 26.28125 -3.484375 C 27.601562 -2.109375 29.054688 -1.421875 30.640625 -1.421875 L 33.1875 -1.421875 L 33.1875 0 L 2.375 0 L 2.375 -1.59375 L 4.921875 -1.59375 C 7.773438 -1.59375 10.285156 -2.460938 12.453125 -4.203125 C 14.628906 -5.953125 15.984375 -8.253906 16.515625 -11.109375 L 26.515625 -97.8125 C 17.203125 -116.132812 6.035156 -125.296875 -6.984375 -125.296875 C -8.148438 -125.296875 -9.367188 -125.238281 -10.640625 -125.125 L -10.640625 -126.71875 C -7.785156 -127.457031 -5.457031 -127.828125 -3.65625 -127.828125 C -1.851562 -127.828125 0.101562 -127.75 2.21875 -127.59375 C 4.34375 -127.4375 6.832031 -126.929688 9.6875 -126.078125 C 12.539062 -125.234375 15.238281 -123.988281 17.78125 -122.34375 C 20.320312 -120.707031 22.546875 -119.015625 24.453125 -117.265625 C 26.359375 -115.523438 28.160156 -113.59375 29.859375 -111.46875 C 32.710938 -107.664062 34.988281 -104.015625 36.6875 -100.515625 L 74.953125 -17.625 L 117.671875 -113.375 L 119.09375 -113.375 L 133.859375 -19.375 C 136.085938 -4.550781 140.878906 6.664062 148.234375 14.28125 C 155.585938 21.90625 164.398438 25.71875 174.671875 25.71875 Z M 174.671875 25.71875 "/></g></g></g><g fill="#000000" fill-opacity="1"><g transform="translate(93.307998, 235.88332)"><g><path d="M 126.5625 -55.734375 C 126.5625 -37.523438 121.664062 -23.3125 111.875 -13.09375 C 102.082031 -2.882812 88.238281 2.21875 70.34375 2.21875 C 58.28125 2.21875 47.40625 -0.316406 37.71875 -5.390625 C 28.03125 -10.472656 20.507812 -17.40625 15.15625 -26.1875 C 9.8125 -34.976562 7.140625 -44.800781 7.140625 -55.65625 C 7.140625 -66.507812 9.785156 -76.328125 15.078125 -85.109375 C 20.378906 -93.898438 27.6875 -100.804688 37 -105.828125 C 46.3125 -110.859375 56.6875 -113.375 68.125 -113.375 C 75.320312 -113.375 82.648438 -112.394531 90.109375 -110.4375 C 97.578125 -108.476562 103.800781 -105.859375 108.78125 -102.578125 L 111.953125 -80.1875 L 110.515625 -80.1875 C 108.296875 -89.082031 103.160156 -96.039062 95.109375 -101.0625 C 87.066406 -106.09375 78.125 -108.609375 68.28125 -108.609375 C 54.195312 -108.609375 42.472656 -103.609375 33.109375 -93.609375 C 23.742188 -83.609375 19.0625 -71.035156 19.0625 -55.890625 C 19.0625 -40.753906 23.898438 -28.078125 33.578125 -17.859375 C 43.265625 -7.648438 55.941406 -2.546875 71.609375 -2.546875 C 87.285156 -2.546875 100.070312 -7.625 109.96875 -17.78125 C 119.863281 -27.945312 124.8125 -41.867188 124.8125 -59.546875 L 126.40625 -59.546875 C 126.507812 -58.273438 126.5625 -57.003906 126.5625 -55.734375 Z M 126.5625 -55.734375 "/></g></g></g><path fill="#e1e1e1" d="M 122.765625 179.496094 L 237.550781 179.496094 C 238.613281 179.496094 239.628906 179.917969 240.378906 180.667969 C 241.128906 181.417969 241.550781 182.4375 241.550781 183.5 L 241.550781 191.5 C 241.550781 192.5625 241.128906 193.582031 240.378906 194.332031 C 239.628906 195.082031 238.613281 195.503906 237.550781 195.503906 L 122.765625 195.503906 C 121.707031 195.503906 120.6875 195.082031 119.9375 194.332031 C 119.1875 193.582031 118.765625 192.5625 118.765625 191.5 L 118.765625 183.5 C 118.765625 182.4375 119.1875 181.417969 119.9375 180.667969 C 120.6875 179.917969 121.707031 179.496094 122.765625 179.496094 Z M 122.765625 179.496094 " fill-opacity="1" fill-rule="nonzero"/><g fill="#000000" fill-opacity="1"><g transform="translate(126.583693, 190.499987)"><g><path d="M 6.765625 -1.375 C 6.484375 -0.90625 6.09375 -0.539062 5.59375 -0.28125 C 5.101562 -0.03125 4.550781 0.09375 3.9375 0.09375 C 3.207031 0.09375 2.582031 -0.046875 2.0625 -0.328125 C 1.539062 -0.609375 1.140625 -1.007812 0.859375 -1.53125 C 0.585938 -2.0625 0.453125 -2.691406 0.453125 -3.421875 C 0.453125 -4.171875 0.601562 -4.828125 0.90625 -5.390625 C 1.21875 -5.960938 1.644531 -6.410156 2.1875 -6.734375 C 2.738281 -7.054688 3.375 -7.21875 4.09375 -7.21875 C 4.707031 -7.21875 5.234375 -7.097656 5.671875 -6.859375 C 6.109375 -6.628906 6.472656 -6.273438 6.765625 -5.796875 L 5.765625 -5.078125 C 5.585938 -5.410156 5.351562 -5.65625 5.0625 -5.8125 C 4.769531 -5.96875 4.445312 -6.046875 4.09375 -6.046875 C 3.632812 -6.046875 3.226562 -5.929688 2.875 -5.703125 C 2.53125 -5.484375 2.257812 -5.175781 2.0625 -4.78125 C 1.863281 -4.394531 1.765625 -3.945312 1.765625 -3.4375 C 1.765625 -2.695312 1.957031 -2.117188 2.34375 -1.703125 C 2.726562 -1.285156 3.265625 -1.078125 3.953125 -1.078125 C 4.335938 -1.078125 4.6875 -1.164062 5 -1.34375 C 5.320312 -1.519531 5.585938 -1.785156 5.796875 -2.140625 Z M 6.765625 -1.375 "/></g></g></g><g fill="#000000" fill-opacity="1"><g transform="translate(140.891479, 190.499987)"><g><path d="M -0.09375 0 L 2.9375 -7.109375 L 4.03125 -7.109375 L 6.953125 0 L 5.625 0 L 4.984375 -1.625 L 1.890625 -1.625 L 1.21875 0 Z M 2.328125 -2.71875 L 4.5625 -2.71875 L 3.46875 -5.515625 Z M 2.328125 -2.71875 "/></g></g></g><g fill="#000000" fill-opacity="1"><g transform="translate(155.399421, 190.499987)"><g><path d="M 5.890625 -7.109375 L 5.734375 -5.96875 L 3.53125 -5.96875 L 3.53125 0 L 2.21875 0 L 2.21875 -5.96875 L -0.0625 -5.96875 L -0.0625 -7.109375 Z M 5.890625 -7.109375 "/></g></g></g><g fill="#000000" fill-opacity="1"><g transform="translate(168.766469, 190.499987)"><g><path d="M 0.6875 0 L 0.96875 -7.109375 L 2.09375 -7.109375 L 4.703125 -1.625 L 7.296875 -7.109375 L 8.421875 -7.109375 L 8.640625 0 L 7.390625 0 L 7.25 -4.421875 L 5.140625 0 L 4.15625 0 L 2.078125 -4.390625 L 1.890625 0 Z M 0.6875 0 "/></g></g></g><g fill="#000000" fill-opacity="1"><g transform="translate(185.736345, 190.499987)"><g><path d="M -0.09375 0 L 2.9375 -7.109375 L 4.03125 -7.109375 L 6.953125 0 L 5.625 0 L 4.984375 -1.625 L 1.890625 -1.625 L 1.21875 0 Z M 2.328125 -2.71875 L 4.5625 -2.71875 L 3.46875 -5.515625 Z M 2.328125 -2.71875 "/></g></g></g><g fill="#000000" fill-opacity="1"><g transform="translate(200.244288, 190.499987)"><g><path d="M 0.734375 0 L 0.734375 -7.109375 L 2.03125 -7.109375 L 2.03125 -3.9375 L 4.984375 -7.109375 L 6.578125 -7.109375 L 3.21875 -3.5625 C 3.5 -3.414062 3.742188 -3.179688 3.953125 -2.859375 L 4.75 -1.625 C 4.882812 -1.40625 5.019531 -1.253906 5.15625 -1.171875 C 5.289062 -1.097656 5.457031 -1.0625 5.65625 -1.0625 C 5.894531 -1.0625 6.109375 -1.117188 6.296875 -1.234375 L 6.59375 -0.234375 C 6.46875 -0.128906 6.304688 -0.0507812 6.109375 0 C 5.910156 0.0625 5.703125 0.09375 5.484375 0.09375 C 4.734375 0.09375 4.144531 -0.238281 3.71875 -0.90625 L 2.6875 -2.484375 C 2.59375 -2.617188 2.5 -2.722656 2.40625 -2.796875 C 2.3125 -2.878906 2.1875 -2.9375 2.03125 -2.96875 L 2.03125 0 Z M 0.734375 0 "/></g></g></g><g fill="#000000" fill-opacity="1"><g transform="translate(214.171775, 190.499987)"><g><path d="M 5.3125 -5.984375 L 2 -5.984375 L 2 -4.15625 L 5.140625 -4.15625 L 5.140625 -3.03125 L 2 -3.03125 L 2 -1.125 L 5.421875 -1.125 L 5.34375 0 L 0.734375 0 L 0.734375 -7.109375 L 5.3125 -7.109375 Z M 5.3125 -5.984375 "/></g></g></g><g fill="#000000" fill-opacity="1"><g transform="translate(227.448752, 190.499987)"><g><path d="M 6.34375 -1.234375 L 6.65625 -0.234375 C 6.519531 -0.128906 6.351562 -0.0507812 6.15625 0 C 5.96875 0.0625 5.765625 0.09375 5.546875 0.09375 C 4.796875 0.09375 4.207031 -0.238281 3.78125 -0.90625 L 2.75 -2.484375 C 2.644531 -2.648438 2.535156 -2.765625 2.421875 -2.828125 C 2.304688 -2.898438 2.179688 -2.9375 2.046875 -2.9375 L 2 -2.9375 L 2 0 L 0.734375 0 L 0.734375 -7.109375 L 2.9375 -7.109375 C 3.84375 -7.109375 4.523438 -6.921875 4.984375 -6.546875 C 5.453125 -6.171875 5.6875 -5.660156 5.6875 -5.015625 C 5.6875 -4.617188 5.597656 -4.273438 5.421875 -3.984375 C 5.253906 -3.703125 5.019531 -3.476562 4.71875 -3.3125 C 4.414062 -3.144531 4.078125 -3.039062 3.703125 -3 C 3.898438 -2.882812 4.082031 -2.703125 4.25 -2.453125 L 4.8125 -1.625 C 4.957031 -1.40625 5.09375 -1.253906 5.21875 -1.171875 C 5.351562 -1.097656 5.519531 -1.0625 5.71875 -1.0625 C 5.945312 -1.0625 6.15625 -1.117188 6.34375 -1.234375 Z M 2.859375 -6.046875 L 2 -6.046875 L 2 -3.953125 L 2.796875 -3.953125 C 3.335938 -3.953125 3.738281 -4.035156 4 -4.203125 C 4.257812 -4.367188 4.390625 -4.640625 4.390625 -5.015625 C 4.390625 -5.703125 3.878906 -6.046875 2.859375 -6.046875 Z M 2.859375 -6.046875 "/></g></g></g></svg>